{
	"asset":{
		"generator":"Khronos glTF Blender I/O v4.4.56",
		"version":"2.0"
	},
	"extensionsUsed":[
		"KHR_materials_specular",
		"KHR_materials_ior"
	],
	"scene":0,
	"scenes":[
		{
			"name":"Scene",
			"nodes":[
				0,
				1
			]
		}
	],
	"nodes":[
		{
			"mesh":0,
			"name":"horse"
		},
		{
			"name":"Camera_rotation_link"
		}
	],
	"materials":[
		{
			"doubleSided":true,
			"extensions":{
				"KHR_materials_specular":{
					"specularFactor":0
				},
				"KHR_materials_ior":{
					"ior":1.4500000476837158
				}
			},
			"name":"horse_base",
			"pbrMetallicRoughness":{
				"baseColorFactor":[
					0.21952611207962036,
					0.10968571156263351,
					0.05823931843042374,
					1
				],
				"metallicFactor":0
			}
		},
		{
			"doubleSided":true,
			"extensions":{
				"KHR_materials_specular":{
					"specularFactor":0
				},
				"KHR_materials_ior":{
					"ior":1.4500000476837158
				}
			},
			"name":"horse_white",
			"pbrMetallicRoughness":{
				"baseColorFactor":[
					0.4000000059604645,
					0.4000000059604645,
					0.4000000059604645,
					1
				],
				"metallicFactor":0
			}
		},
		{
			"doubleSided":true,
			"extensions":{
				"KHR_materials_specular":{
					"specularFactor":0
				},
				"KHR_materials_ior":{
					"ior":1.4500000476837158
				}
			},
			"name":"horse_hoof",
			"pbrMetallicRoughness":{
				"baseColorFactor":[
					0.07816343754529953,
					0.060544099658727646,
					0.043209053575992584,
					1
				],
				"metallicFactor":0
			}
		},
		{
			"doubleSided":true,
			"extensions":{
				"KHR_materials_specular":{
					"specularFactor":0
				},
				"KHR_materials_ior":{
					"ior":1.4500000476837158
				}
			},
			"name":"horse_black",
			"pbrMetallicRoughness":{
				"baseColorFactor":[
					0.014999999664723873,
					0.014999999664723873,
					0.014999999664723873,
					1
				],
				"metallicFactor":0
			}
		},
		{
			"doubleSided":true,
			"extensions":{
				"KHR_materials_specular":{
					"specularFactor":0
				},
				"KHR_materials_ior":{
					"ior":1.4500000476837158
				}
			},
			"name":"horse_grey",
			"pbrMetallicRoughness":{
				"baseColorFactor":[
					0.05973699316382408,
					0.05973699316382408,
					0.05973699316382408,
					1
				],
				"metallicFactor":0
			}
		}
	],
	"meshes":[
		{
			"name":"Cube",
			"primitives":[
				{
					"attributes":{
						"POSITION":0,
						"NORMAL":1,
						"TEXCOORD_0":2
					},
					"indices":3,
					"material":0
				},
				{
					"attributes":{
						"POSITION":4,
						"NORMAL":5,
						"TEXCOORD_0":6
					},
					"indices":7,
					"material":1
				},
				{
					"attributes":{
						"POSITION":8,
						"NORMAL":9,
						"TEXCOORD_0":10
					},
					"indices":11,
					"material":2
				},
				{
					"attributes":{
						"POSITION":12,
						"NORMAL":13,
						"TEXCOORD_0":14
					},
					"indices":15,
					"material":3
				},
				{
					"attributes":{
						"POSITION":16,
						"NORMAL":17,
						"TEXCOORD_0":18
					},
					"indices":19,
					"material":4
				}
			]
		}
	],
	"accessors":[
		{
			"bufferView":0,
			"componentType":5126,
			"count":1464,
			"max":[
				0.3617197573184967,
				1.9924743175506592,
				1.5466338396072388
			],
			"min":[
				-0.3617197573184967,
				0.10382651537656784,
				-0.8557987213134766
			],
			"type":"VEC3"
		},
		{
			"bufferView":1,
			"componentType":5126,
			"count":1464,
			"type":"VEC3"
		},
		{
			"bufferView":2,
			"componentType":5126,
			"count":1464,
			"type":"VEC2"
		},
		{
			"bufferView":3,
			"componentType":5123,
			"count":2196,
			"type":"SCALAR"
		},
		{
			"bufferView":4,
			"componentType":5126,
			"count":248,
			"max":[
				0.20323362946510315,
				0.5654805302619934,
				0.6309896111488342
			],
			"min":[
				-0.20323362946510315,
				0.10382651537656784,
				-0.8271223902702332
			],
			"type":"VEC3"
		},
		{
			"bufferView":5,
			"componentType":5126,
			"count":248,
			"type":"VEC3"
		},
		{
			"bufferView":6,
			"componentType":5126,
			"count":248,
			"type":"VEC2"
		},
		{
			"bufferView":7,
			"componentType":5123,
			"count":372,
			"type":"SCALAR"
		},
		{
			"bufferView":8,
			"componentType":5126,
			"count":168,
			"max":[
				0.22372256219387054,
				0.112177275121212,
				0.697329044342041
			],
			"min":[
				-0.22372256219387054,
				0.00019344333850312978,
				-0.7680553793907166
			],
			"type":"VEC3"
		},
		{
			"bufferView":9,
			"componentType":5126,
			"count":168,
			"type":"VEC3"
		},
		{
			"bufferView":10,
			"componentType":5126,
			"count":168,
			"type":"VEC2"
		},
		{
			"bufferView":11,
			"componentType":5123,
			"count":252,
			"type":"SCALAR"
		},
		{
			"bufferView":12,
			"componentType":5126,
			"count":300,
			"max":[
				0.15098010003566742,
				1.9522374868392944,
				1.4370795488357544
			],
			"min":[
				-0.15098010003566742,
				0.44108185172080994,
				-0.9494307637214661
			],
			"type":"VEC3"
		},
		{
			"bufferView":13,
			"componentType":5126,
			"count":300,
			"type":"VEC3"
		},
		{
			"bufferView":14,
			"componentType":5126,
			"count":300,
			"type":"VEC2"
		},
		{
			"bufferView":15,
			"componentType":5123,
			"count":450,
			"type":"SCALAR"
		},
		{
			"bufferView":16,
			"componentType":5126,
			"count":64,
			"max":[
				0.07195455580949783,
				1.4442086219787598,
				1.593589186668396
			],
			"min":[
				-0.07195455580949783,
				1.2926363945007324,
				1.4064635038375854
			],
			"type":"VEC3"
		},
		{
			"bufferView":17,
			"componentType":5126,
			"count":64,
			"type":"VEC3"
		},
		{
			"bufferView":18,
			"componentType":5126,
			"count":64,
			"type":"VEC2"
		},
		{
			"bufferView":19,
			"componentType":5123,
			"count":96,
			"type":"SCALAR"
		}
	],
	"bufferViews":[
		{
			"buffer":0,
			"byteLength":17568,
			"byteOffset":0,
			"target":34962
		},
		{
			"buffer":0,
			"byteLength":17568,
			"byteOffset":17568,
			"target":34962
		},
		{
			"buffer":0,
			"byteLength":11712,
			"byteOffset":35136,
			"target":34962
		},
		{
			"buffer":0,
			"byteLength":4392,
			"byteOffset":46848,
			"target":34963
		},
		{
			"buffer":0,
			"byteLength":2976,
			"byteOffset":51240,
			"target":34962
		},
		{
			"buffer":0,
			"byteLength":2976,
			"byteOffset":54216,
			"target":34962
		},
		{
			"buffer":0,
			"byteLength":1984,
			"byteOffset":57192,
			"target":34962
		},
		{
			"buffer":0,
			"byteLength":744,
			"byteOffset":59176,
			"target":34963
		},
		{
			"buffer":0,
			"byteLength":2016,
			"byteOffset":59920,
			"target":34962
		},
		{
			"buffer":0,
			"byteLength":2016,
			"byteOffset":61936,
			"target":34962
		},
		{
			"buffer":0,
			"byteLength":1344,
			"byteOffset":63952,
			"target":34962
		},
		{
			"buffer":0,
			"byteLength":504,
			"byteOffset":65296,
			"target":34963
		},
		{
			"buffer":0,
			"byteLength":3600,
			"byteOffset":65800,
			"target":34962
		},
		{
			"buffer":0,
			"byteLength":3600,
			"byteOffset":69400,
			"target":34962
		},
		{
			"buffer":0,
			"byteLength":2400,
			"byteOffset":73000,
			"target":34962
		},
		{
			"buffer":0,
			"byteLength":900,
			"byteOffset":75400,
			"target":34963
		},
		{
			"buffer":0,
			"byteLength":768,
			"byteOffset":76300,
			"target":34962
		},
		{
			"buffer":0,
			"byteLength":768,
			"byteOffset":77068,
			"target":34962
		},
		{
			"buffer":0,
			"byteLength":512,
			"byteOffset":77836,
			"target":34962
		},
		{
			"buffer":0,
			"byteLength":192,
			"byteOffset":78348,
			"target":34963
		}
	],
	"buffers":[
		{
			"byteLength":78540,
			"uri":"horse.bin"
		}
	]
}
